<svg width="170" height="27" viewBox="0 0 170 27" fill="none" xmlns="http://www.w3.org/2000/svg">
<g id="Calque_1" clip-path="url(#clip0_7098_2934)">
<g id="Logo Artwork">
<path id="Vector" d="M23.1842 22.5663L19.5825 18.9585C19.433 18.8089 19.1899 18.8089 19.0404 18.9585C18.9656 19.0332 18.922 19.1392 18.9282 19.2513C18.9282 19.2762 18.9282 19.3074 18.9282 19.3323C19.0342 20.672 18.0372 21.8497 16.6975 21.9557C15.3578 22.0616 14.1801 21.0646 14.0741 19.7249C13.9682 18.3852 14.9652 17.2075 16.3049 17.1016C16.442 17.0891 16.5791 17.0891 16.7162 17.1016C16.7785 17.1016 16.847 17.1016 16.9031 17.0704C16.9592 17.0517 17.0153 17.0205 17.0589 16.9769C17.2084 16.8274 17.2084 16.5844 17.0589 16.4348L14.4605 13.8426C14.6225 13.5061 14.6225 13.1136 14.4605 12.7771L16.5417 10.7021C16.6601 11.3377 16.9779 11.9234 17.4452 12.3783C18.6915 13.6245 20.7166 13.6308 21.9628 12.3783C23.2091 11.132 23.2153 9.1069 21.9628 7.86066C21.5017 7.39955 20.916 7.09422 20.2804 6.97583L23.1156 4.14062C28.0258 9.29384 28.0507 17.382 23.1779 22.5663H23.1842Z" fill="#0A58A5"/>
<path id="Vector_2" d="M22.544 3.604L19.1168 7.03739C18.9673 7.18694 18.9673 7.42373 19.1168 7.57328C19.1978 7.64805 19.3038 7.69167 19.4097 7.68544H19.4969C20.8367 7.58574 22.0019 8.58897 22.1016 9.92245C22.2013 11.2622 21.1981 12.4274 19.8646 12.5271C18.5311 12.6268 17.3596 11.6236 17.2599 10.2901C17.2475 10.1592 17.2537 10.0221 17.2599 9.89129C17.2599 9.82898 17.2599 9.76667 17.2288 9.71059C17.2101 9.64827 17.1789 9.59842 17.1353 9.5548C16.992 9.40526 16.7552 9.40526 16.6057 9.54857C16.6057 9.54857 16.6057 9.54857 16.5994 9.5548L13.9387 12.2155C13.5835 12.0161 13.1536 12.0037 12.7859 12.1781L10.9664 10.3649C12.6987 10.0408 13.8452 8.37087 13.5212 6.63237C13.1972 4.90009 11.5272 3.75355 9.78871 4.07757C9.1469 4.19596 8.55493 4.51375 8.10005 4.98109C7.63894 5.43597 7.32738 6.02171 7.21522 6.65729L4.23047 3.63515C9.37122 -1.20027 17.3846 -1.21273 22.544 3.604Z" fill="#FF9900"/>
<path id="Vector_3" d="M7.29625 7.78598C7.4458 7.93553 7.68881 7.93553 7.83836 7.78598C7.88198 7.74236 7.91314 7.68628 7.9256 7.6302C7.94429 7.56789 7.94429 7.50557 7.9256 7.44326C7.80098 6.10355 8.79174 4.91962 10.1315 4.795C11.4712 4.67037 12.6551 5.66113 12.7797 7.00085C12.9043 8.34056 11.9136 9.52449 10.5739 9.64911C10.4368 9.66157 10.2997 9.66157 10.1626 9.64911H10.0754C9.96944 9.64288 9.86351 9.68027 9.78873 9.76127C9.63918 9.90459 9.63918 10.1414 9.7825 10.2909C9.7825 10.2909 9.7825 10.2909 9.78873 10.2972L12.194 12.7086C12.0008 13.07 12.0008 13.5062 12.194 13.8676L10.119 15.9426C10.0006 15.3071 9.68903 14.7213 9.23416 14.2602C7.98168 13.014 5.95654 13.0202 4.71653 14.2727C3.47028 15.5251 3.47651 17.5503 4.72899 18.7903C5.18387 19.2452 5.76337 19.5505 6.39895 19.6689L3.56998 22.5103C-1.23429 17.3197 -1.18444 9.29393 3.68837 4.17188L7.29625 7.78598Z" fill="#FC121B"/>
<path id="Vector_4" d="M9.402 16.7214C9.402 16.7214 9.402 16.7775 9.402 16.8024C9.402 17.0143 9.57024 17.1826 9.7821 17.1826C9.86934 17.1826 9.95658 17.1514 10.0251 17.0953L12.6983 14.4221C13.0846 14.6464 13.5582 14.6464 13.9446 14.4221L15.9136 16.3974C14.1813 16.7277 13.0473 18.4039 13.3775 20.1424C13.7078 21.8809 15.384 23.0087 17.1225 22.6785C17.7456 22.5601 18.3126 22.261 18.7675 21.8123C19.2224 21.3575 19.534 20.7717 19.6523 20.1361L22.6558 23.1396C17.4527 28.0934 9.26491 28.056 4.10547 23.0586L7.5451 19.6252C7.69465 19.4756 7.69465 19.2326 7.5451 19.0831C7.50148 19.0395 7.4454 19.0083 7.38932 18.9896C7.33324 18.9647 7.26469 18.9522 7.20238 18.9584C5.86267 19.0831 4.67874 18.0923 4.55412 16.7526C4.42949 15.4129 5.42026 14.229 6.75997 14.1043C8.09968 13.9797 9.28361 14.9705 9.40823 16.3102C9.42069 16.4473 9.42069 16.5906 9.40823 16.7277L9.402 16.7214Z" fill="#59B224"/>
<path id="Vector_5" d="M71.7777 13.4162C71.8587 10.9611 70.9116 8.58081 69.1669 6.85476C65.3845 3.43383 59.6269 3.43383 55.8445 6.85476C54.8101 7.85799 54.0499 9.1167 53.6449 10.5063C53.6262 10.5374 53.6075 10.5686 53.5888 10.5935C53.5452 10.7493 53.514 10.9175 53.4767 11.0795C53.4393 11.2415 53.4081 11.3599 53.3832 11.5032C53.3832 11.5656 53.3832 11.6341 53.3832 11.6964C53.3396 11.9457 53.3022 12.1949 53.2835 12.4442C53.2835 12.7495 53.2461 13.0673 53.2461 13.3851C53.2461 13.7091 53.2461 14.0082 53.2835 14.326C53.3022 14.5752 53.3396 14.8245 53.3832 15.0737C53.3832 15.136 53.3832 15.2046 53.3832 15.2669C53.3832 15.4102 53.4455 15.5473 53.4767 15.6906C53.5078 15.8339 53.5452 16.0209 53.5888 16.1767C53.5888 16.2078 53.5888 16.239 53.5888 16.2701C53.9938 17.6597 54.754 18.9184 55.7884 19.9216C59.5708 23.3426 65.3284 23.3426 69.1108 19.9216C70.8555 18.1893 71.8027 15.8028 71.7092 13.3415L71.7777 13.4162ZM58.904 16.9743C57.9943 16.0209 57.502 14.7435 57.5332 13.4287C57.502 12.1139 57.9943 10.8365 58.904 9.88936C60.8669 7.97015 63.9949 7.97015 65.9578 9.88936C66.8675 10.8365 67.3598 12.1139 67.3286 13.4287C67.3598 14.7435 66.8675 16.0209 65.9578 16.9743C63.9949 18.8935 60.8669 18.8935 58.904 16.9743Z" fill="#1D252B"/>
<path id="Vector_6" d="M83.5344 8.454C84.6685 8.40415 85.7777 8.80918 86.6127 9.58185C87.404 10.3358 87.7156 11.1147 87.7779 12.8345V22.5989H92.0587V12.7348C92.0587 10.099 91.2736 8.04274 89.6971 6.53478C88.0334 4.99567 85.8275 4.17938 83.5656 4.27285H83.497C81.2351 4.17938 79.0293 4.99567 77.3655 6.53478C75.7953 8.04274 75.0039 10.099 75.0039 12.766V22.5989H79.2847V12.8345C79.3533 11.1147 79.6649 10.3421 80.45 9.58185C81.285 8.80918 82.3941 8.40415 83.5344 8.454Z" fill="#1D252B"/>
<path id="Vector_7" d="M127.496 4.31082V8.52313H125.508C124.206 8.46704 122.935 8.96554 122.019 9.89399C121.103 10.8723 120.617 12.1808 120.679 13.5206V22.5994H116.398V13.5206C116.398 10.3738 117.19 8.04332 118.797 6.53537C120.405 5.02741 122.636 4.27344 125.508 4.27344L127.496 4.31082Z" fill="#1D252B"/>
<path id="Vector_8" d="M148.628 14.9563H135.923C135.443 14.9563 135.2 15.1619 135.2 15.5794C135.2 16.4393 135.68 17.1871 136.639 17.8725C137.655 18.5704 138.864 18.9318 140.098 18.9007C142.391 18.9007 143.899 18.2215 144.584 16.8194H148.323C147.849 18.5455 146.84 20.0721 145.438 21.1813C143.755 22.2094 141.799 22.7142 139.83 22.6207C134.982 22.8014 130.9 19.0191 130.72 14.1712C130.713 13.9406 130.713 13.7038 130.72 13.4733C130.639 10.9933 131.604 8.58801 133.387 6.85573C135.169 5.12345 137.58 4.195 140.066 4.28224C142.409 4.17631 144.696 5.02999 146.397 6.6501C147.843 8.10197 149.201 10.663 148.628 14.9563ZM140.135 7.93373C138.939 7.89634 137.761 8.24529 136.776 8.93073C135.885 9.59123 135.287 10.5758 135.1 11.6662H144.073C144.416 11.6662 144.696 11.3858 144.696 11.0431C144.653 10.1583 144.191 9.35445 143.45 8.86841C143.45 8.86841 142.428 7.93373 140.135 7.93373Z" fill="#1D252B"/>
<path id="Vector_9" d="M169.864 14.9563H157.159C156.679 14.9563 156.442 15.1619 156.442 15.5794C156.442 16.4393 156.916 17.1871 157.875 17.8725C158.891 18.5704 160.1 18.9318 161.333 18.9007C163.633 18.9007 165.141 18.2215 165.826 16.8194H169.565C169.091 18.5455 168.082 20.0721 166.68 21.1813C164.997 22.2094 163.041 22.7142 161.072 22.6207C156.224 22.8014 152.142 19.0191 151.962 14.1712C151.956 13.9406 151.956 13.7038 151.962 13.4733C151.881 10.9933 152.847 8.58801 154.622 6.85573C156.405 5.12969 158.816 4.19501 161.302 4.28224C163.639 4.17631 165.92 5.02999 167.621 6.63764C169.085 8.10198 170.437 10.663 169.864 14.9563ZM161.39 7.93373C160.193 7.89635 159.015 8.2453 158.031 8.93073C157.146 9.59747 156.548 10.5758 156.355 11.6662H165.328C165.67 11.6662 165.951 11.3858 165.951 11.0431C165.901 10.1645 165.44 9.35445 164.705 8.86842C164.705 8.86842 163.664 7.93373 161.39 7.93373Z" fill="#1D252B"/>
<path id="Vector_10" d="M45.4855 15.5076C45.1802 16.355 44.6007 17.0841 43.8405 17.5639C43.0491 18.0811 42.1207 18.3552 41.1735 18.349C39.8961 18.3802 38.6748 17.8567 37.8149 16.9096C36.039 14.9218 36.039 11.9122 37.8149 9.9244C38.6748 8.97726 39.8961 8.45384 41.1735 8.48499C42.1207 8.47876 43.0491 8.75293 43.8405 9.27636C44.6069 9.75616 45.1865 10.479 45.4855 11.3327H49.972C49.8038 10.6659 49.6418 10.1674 49.6418 10.1674C49.2866 9.00841 48.6822 7.94288 47.8596 7.05181C47.5855 6.75895 47.2864 6.48477 46.9748 6.23552C45.3609 4.89581 43.3171 4.20415 41.2234 4.27892C36.3755 4.11691 32.3128 7.91795 32.1507 12.7658C32.1445 12.9715 32.1445 13.1771 32.1507 13.3827V13.4513C31.97 18.2992 35.7524 22.3806 40.6003 22.5613C40.8059 22.5675 41.0178 22.5675 41.2234 22.5613C43.3171 22.6423 45.3609 21.9444 46.9748 20.6109C47.2988 20.3555 47.5979 20.075 47.8783 19.7697C48.7009 18.8787 49.3053 17.8131 49.6605 16.6541C49.6605 16.6541 49.8225 16.1494 49.9907 15.4889H45.4855V15.5076Z" fill="#1D252B"/>
<path id="Vector_11" d="M108.667 15.5075C108.361 16.355 107.782 17.084 107.022 17.5638C106.23 18.081 105.302 18.3552 104.355 18.349C103.077 18.3801 101.856 17.8567 100.996 16.9096C99.2203 14.9218 99.2203 11.9121 100.996 9.92436C101.856 8.97722 103.077 8.45379 104.355 8.48495C105.302 8.47872 106.23 8.75289 107.022 9.27631C107.788 9.75612 108.368 10.4789 108.667 11.3326H113.153C112.985 10.6659 112.829 10.1674 112.829 10.1674C112.474 9.00837 111.863 7.94283 111.041 7.05177C110.76 6.7589 110.461 6.48473 110.144 6.23548C108.53 4.902 106.48 4.20411 104.386 4.27888C99.5381 4.12933 95.4816 7.94283 95.3382 12.7907C95.3382 12.9901 95.3382 13.1833 95.3382 13.3827V13.4512C95.1575 18.2991 98.9399 22.3806 103.788 22.5613C103.987 22.5675 104.187 22.5675 104.386 22.5613C106.48 22.6423 108.53 21.9444 110.144 20.6109C110.461 20.3554 110.76 20.075 111.041 19.7697C111.863 18.8786 112.474 17.8131 112.829 16.6541C112.829 16.6541 112.985 16.1493 113.153 15.4888H108.667V15.5075Z" fill="#1D252B"/>
</g>
</g>
<defs>
<clipPath id="clip0_7098_2934">
<rect width="170" height="26.8254" fill="white"/>
</clipPath>
</defs>
</svg>
