<svg width="23" height="23" viewBox="0 0 23 23" fill="none" xmlns="http://www.w3.org/2000/svg">
<g clip-path="url(#clip0_112_65)">
<path d="M11.8301 16.9215C11.7302 16.9965 11.6166 17.051 11.4956 17.0819C11.3747 17.1129 11.2489 17.1198 11.1253 17.1021C11.0017 17.0845 10.8828 17.0426 10.7754 16.979C10.6679 16.9154 10.5741 16.8313 10.4992 16.7314C10.4243 16.6315 10.3698 16.5179 10.3388 16.397C10.3078 16.276 10.301 16.1502 10.3186 16.0266C10.3363 15.903 10.3781 15.7841 10.4417 15.6767C10.5053 15.5693 10.5894 15.4754 10.6893 15.4005C12.1761 14.2854 13.0279 13.2007 13.5156 12.2539C12.846 12.4262 12.1393 12.3857 11.4938 12.1379C10.8483 11.8902 10.296 11.4474 9.9137 10.8713C9.53141 10.2951 9.3381 9.61422 9.36065 8.92315C9.3832 8.23208 9.62048 7.5652 10.0395 7.01521C10.4586 6.46521 11.0385 6.05942 11.6988 5.85425C12.3591 5.64907 13.0669 5.6547 13.7239 5.87035C14.3808 6.086 14.9543 6.50095 15.3645 7.05754C15.7747 7.61413 16.0014 8.2847 16.0129 8.97604C16.1334 10.1435 15.9677 11.3227 15.53 12.4117C14.9625 13.8434 13.8531 15.4043 11.8301 16.9215ZM3.27427 16.9215C3.1744 16.9965 3.06075 17.051 2.93982 17.0819C2.81888 17.1129 2.69303 17.1198 2.56944 17.1021C2.44586 17.0845 2.32696 17.0426 2.21954 16.979C2.11211 16.9154 2.01827 16.8313 1.94337 16.7314C1.86846 16.6315 1.81396 16.5179 1.78298 16.397C1.752 16.276 1.74514 16.1502 1.76279 16.0266C1.78045 15.903 1.82227 15.7841 1.88588 15.6767C1.94948 15.5693 2.03362 15.4754 2.1335 15.4005C3.62031 14.2854 4.47209 13.2007 4.95977 12.2539C4.29016 12.4262 3.58349 12.3857 2.93797 12.1379C2.29246 11.8902 1.74017 11.4474 1.35788 10.8713C0.975584 10.2951 0.782276 9.61422 0.804824 8.92315C0.827371 8.23208 1.06465 7.5652 1.48369 7.01521C1.90273 6.46521 2.4827 6.05942 3.14299 5.85425C3.80328 5.64907 4.5111 5.6547 5.16805 5.87035C5.82499 6.086 6.39844 6.50095 6.80868 7.05754C7.21892 7.61413 7.44556 8.2847 7.45712 8.97604C7.57758 10.1435 7.41183 11.3227 6.97419 12.4117C6.4057 13.8434 5.29725 15.4043 3.27427 16.9215Z" fill="#2B248C"/>
</g>
<defs>
<clipPath id="clip0_112_65">
<rect width="22.8155" height="22.8155" fill="white" transform="matrix(-1 0 0 -1 22.8155 22.8155)"/>
</clipPath>
</defs>
</svg>
