<svg width="23" height="23" viewBox="0 0 23 23" fill="none" xmlns="http://www.w3.org/2000/svg">
<path d="M7.98544 5.89399C8.08531 5.81908 8.19896 5.76458 8.3199 5.7336C8.44083 5.70262 8.56669 5.69576 8.69027 5.71341C8.81386 5.73107 8.93276 5.77289 9.04018 5.8365C9.1476 5.9001 9.24144 5.98424 9.31635 6.08412C9.39125 6.18399 9.44575 6.29764 9.47674 6.41857C9.50772 6.53951 9.51458 6.66536 9.49692 6.78895C9.47927 6.91253 9.43744 7.03143 9.37384 7.13885C9.31023 7.24628 9.22609 7.34012 9.12622 7.41502C7.63941 8.53013 6.78763 9.61482 6.29994 10.5617C6.96955 10.3893 7.67623 10.4298 8.32174 10.6776C8.96726 10.9254 9.51954 11.3681 9.90184 11.9443C10.2841 12.5204 10.4774 13.2013 10.4549 13.8924C10.4323 14.5835 10.1951 15.2503 9.77602 15.8003C9.35699 16.3503 8.77702 16.7561 8.11672 16.9613C7.45643 17.1665 6.74862 17.1608 6.09167 16.9452C5.43472 16.7295 4.86127 16.3146 4.45104 15.758C4.0408 15.2014 3.81415 14.5308 3.80259 13.8395C3.68213 12.6721 3.84789 11.4928 4.28552 10.4039C4.85306 8.97218 5.96246 7.41122 7.98544 5.89399ZM16.5413 5.89399C16.6411 5.81908 16.7548 5.76458 16.8757 5.7336C16.9967 5.70262 17.1225 5.69576 17.2461 5.71341C17.3697 5.73107 17.4886 5.77289 17.596 5.8365C17.7034 5.9001 17.7973 5.98424 17.8722 6.08412C17.9471 6.18399 18.0016 6.29764 18.0326 6.41857C18.0635 6.53951 18.0704 6.66536 18.0527 6.78895C18.0351 6.91253 17.9933 7.03143 17.9297 7.13885C17.8661 7.24628 17.7819 7.34012 17.682 7.41502C16.1952 8.53013 15.3435 9.61482 14.8558 10.5617C15.5254 10.3893 16.2321 10.4298 16.8776 10.6776C17.5231 10.9254 18.0754 11.3681 18.4577 11.9443C18.84 12.5204 19.0333 13.2013 19.0107 13.8924C18.9882 14.5835 18.7509 15.2503 18.3319 15.8003C17.9128 16.3503 17.3328 16.7561 16.6725 16.9613C16.0123 17.1665 15.3044 17.1608 14.6475 16.9452C13.9905 16.7295 13.4171 16.3146 13.0069 15.758C12.5966 15.2014 12.37 14.5308 12.3584 13.8395C12.238 12.6721 12.4037 11.4928 12.8413 10.4039C13.4098 8.97218 14.5183 7.41122 16.5413 5.89399Z" fill="#2B248C"/>
</svg>
